<svg width="65" height="62" viewBox="0 0 65 62" fill="none" xmlns="http://www.w3.org/2000/svg">
<g opacity="0.2">
<path d="M32.4822 34.5329C32.6886 34.5329 32.8903 34.6166 33.0362 34.7624C33.0362 34.7624 33.0362 34.7624 33.0362 34.7625C33.0362 34.7625 33.0362 34.7625 33.0362 34.7625C33.1821 34.9084 33.2658 35.1101 33.2658 35.3165C33.2658 35.5228 33.182 35.7246 33.0362 35.8705C33.0362 35.8705 33.0362 35.8705 33.0362 35.8705L32.9655 35.7998C32.8384 35.9269 32.662 36.0001 32.4822 36.0001C32.3024 36.0001 32.126 35.9269 31.9989 35.7998L32.4822 34.5329ZM32.4822 34.5329C32.2758 34.5329 32.074 34.6166 31.9282 34.7625L32.4822 34.5329ZM31.9282 35.8705C31.9282 35.8705 31.9282 35.8705 31.9282 35.8705L31.9282 35.8705ZM31.9282 35.8705C31.7823 35.7246 31.6986 35.5228 31.6986 35.3165C31.6986 35.1101 31.7823 34.9083 31.9282 34.7625L31.9282 35.8705Z" fill="white" stroke="#4A4D50" stroke-width="0.2"/>
<mask id="path-2-outside-1" maskUnits="userSpaceOnUse" x="14" y="7.20767" width="37" height="29" fill="black">
<rect fill="white" x="14" y="7.20767" width="37" height="29"/>
<path d="M46.3469 23.3584L44.0665 22.8137V21.9091C45.3323 21.1091 46.1753 19.6983 46.1753 18.0935V15.5459C46.1753 13.0581 44.1513 11.0342 41.6634 11.0342C40.3214 11.0342 39.1151 11.6239 38.2879 12.5569C37.5634 10.0479 35.2462 8.20767 32.5071 8.20767H32.507C29.7635 8.20767 27.4432 10.0537 26.7227 12.5689C25.8953 11.6289 24.6845 11.0342 23.3368 11.0342C20.8489 11.0342 18.8249 13.0582 18.8249 15.5459V18.0935C18.8249 19.6983 19.6679 21.1092 20.9337 21.9091V22.8137L18.6533 23.3584C16.5023 23.8722 15 25.7756 15 27.9869V32.5821C15 32.9596 15.3061 33.2657 15.6836 33.2657H21.1498V35.3165C21.1498 35.694 21.4559 36.0001 21.8334 36.0001H29.3327C29.7102 36.0001 30.0163 35.694 30.0163 35.3165C30.0163 34.9389 29.7102 34.6329 29.3327 34.6329H26.2809V31.6242C26.2809 31.2467 25.9748 30.9407 25.5973 30.9407C25.2199 30.9407 24.9137 31.2467 24.9137 31.6242V34.6329H22.5169V31.5486C22.5169 29.2303 24.0915 27.2339 26.3461 26.6936L29.7082 25.8879L31.8715 30.8095C31.9806 31.0578 32.2261 31.2181 32.4972 31.2181H32.4973C32.7684 31.2181 33.0139 31.0578 33.123 30.8096L35.2841 25.8952L38.6365 26.696C40.8931 27.235 42.4691 29.2319 42.4691 31.5519V32.3147C42.4341 32.3968 42.4147 32.4871 42.4147 32.582C42.4147 32.6769 42.4341 32.7673 42.4691 32.8494V34.6329H40.0863V31.6242C40.0863 31.2467 39.7801 30.9407 39.4027 30.9407C39.0252 30.9407 38.7191 31.2467 38.7191 31.6242V34.6329H35.3712C34.9937 34.6329 34.6876 34.9389 34.6876 35.3165C34.6876 35.694 34.9937 36.0001 35.3712 36.0001H43.1526C43.5301 36.0001 43.8362 35.694 43.8362 35.3165V33.2657H49.3164C49.6939 33.2657 50 32.9596 50 32.5821V27.9869C50 25.7756 48.4977 23.8722 46.3469 23.3584ZM41.6634 12.4014C43.3973 12.4014 44.808 13.812 44.808 15.5459V15.7152V15.7839H42.8528C41.3758 15.7839 39.9244 15.3961 38.6454 14.661C39.0286 13.3566 40.2365 12.4014 41.6634 12.4014ZM38.5187 17.9819C38.5211 17.9121 38.5228 16.1439 38.5228 16.1439C39.8667 16.8048 41.3482 17.1511 42.8528 17.1511H44.8081V18.0935C44.808 19.8274 43.3973 21.238 41.6634 21.238C39.9294 21.238 38.5187 19.8273 38.5187 18.0935V17.9819ZM27.8584 14.2234C27.8584 11.6602 29.9438 9.57493 32.507 9.57493C35.0702 9.57493 37.1556 11.6602 37.1556 14.2234V14.3125L34.6185 12.8219C34.3306 12.6527 33.9627 12.7164 33.7482 12.9723C32.7625 14.1486 31.3168 14.8233 29.782 14.8233H27.8584V14.2234ZM20.192 15.7152V15.5459C20.192 13.812 21.6027 12.4014 23.3366 12.4014C24.7635 12.4014 25.9714 13.3566 26.3546 14.6611C25.0755 15.3961 23.6242 15.7839 22.1472 15.7839H20.192V15.7152ZM20.192 18.0935V17.1511H22.1472C23.6533 17.1511 25.1364 16.8041 26.4813 16.1419V18.0935C26.4813 19.8274 25.0706 21.238 23.3366 21.238C21.6027 21.238 20.192 19.8273 20.192 18.0935ZM21.1498 31.5486V31.8985H19.1016V28.8614C19.1016 28.4838 18.7954 28.1778 18.418 28.1778C18.0405 28.1778 17.7344 28.4838 17.7344 28.8614V31.8985H16.3672V27.9869C16.3672 26.4109 17.4378 25.0544 18.9708 24.6882L21.1376 24.1705L22.5519 27.5581C21.6674 28.6569 21.1498 30.0497 21.1498 31.5486ZM23.3368 25.8893L22.2986 23.4025C22.2998 23.3861 22.3007 23.3698 22.3007 23.3532V22.4838C22.6336 22.5623 22.9801 22.6052 23.3366 22.6052C23.6916 22.6052 24.0365 22.5627 24.368 22.4849V23.31C24.3673 23.3228 24.3669 23.3357 24.3669 23.3485C24.3669 23.3701 24.369 23.3915 24.371 23.4128L23.3368 25.8893ZM26.0275 25.3641C25.6239 25.4608 25.2381 25.5954 24.8718 25.7614L25.5377 24.1671L27.7049 24.6865C27.873 24.7267 28.0367 24.78 28.1953 24.8446L26.0275 25.3641ZM29.4206 23.9393C28.9915 23.6731 28.5206 23.476 28.0235 23.3569L25.7352 22.8086V21.9121C26.3043 21.5534 26.7877 21.0713 27.148 20.5034C27.6634 21.5103 28.4544 22.3534 29.4206 22.9334V23.9393ZM34.2044 24.9541L32.4974 28.8359L30.7878 24.9465V23.5366C31.3328 23.6995 31.9098 23.7873 32.507 23.7873C33.0962 23.7873 33.6659 23.7017 34.2044 23.5431V24.9541ZM32.507 22.4202C29.9437 22.4201 27.8584 20.3348 27.8584 17.7717V16.1905H29.7819C31.5267 16.1905 33.1804 15.5009 34.4021 14.2805L37.1516 15.8958V17.9321C37.0665 20.4212 35.0165 22.4202 32.507 22.4202ZM35.5716 22.9462H35.5717C36.5439 22.3682 37.3404 21.5245 37.8597 20.5154C38.2193 21.0781 38.6998 21.5559 39.2648 21.9121V22.8086L36.9765 23.3569C36.4764 23.4768 36.0029 23.6756 35.5716 23.9443V22.9462ZM38.9541 25.3664L36.7922 24.8498C36.9546 24.7828 37.1226 24.7278 37.2951 24.6865L39.4571 24.1684L40.1256 25.7698C39.7546 25.6008 39.3636 25.4642 38.9541 25.3664ZM40.6275 23.423C40.6303 23.3982 40.6322 23.3733 40.6322 23.3482C40.6322 23.3419 40.6322 23.3355 40.632 23.3291V22.4849C40.9635 22.5627 41.3084 22.6052 41.6634 22.6052C42.0199 22.6052 42.3664 22.5623 42.6993 22.4838V23.3532C42.6993 23.3656 42.7002 23.3778 42.7009 23.3902L41.6571 25.8893L40.6275 23.423ZM48.6328 31.8985H47.2656V28.8614C47.2656 28.4838 46.9595 28.1778 46.582 28.1778C46.2046 28.1778 45.8984 28.4838 45.8984 28.8614V31.8985H43.8362V31.5519C43.8362 30.0549 43.3204 28.6641 42.4384 27.5662L43.8571 24.1693L46.0292 24.6882C47.5622 25.0544 48.6328 26.4109 48.6328 27.9869V31.8985Z"/>
</mask>
<path d="M46.3469 23.3584L44.0665 22.8137V21.9091C45.3323 21.1091 46.1753 19.6983 46.1753 18.0935V15.5459C46.1753 13.0581 44.1513 11.0342 41.6634 11.0342C40.3214 11.0342 39.1151 11.6239 38.2879 12.5569C37.5634 10.0479 35.2462 8.20767 32.5071 8.20767H32.507C29.7635 8.20767 27.4432 10.0537 26.7227 12.5689C25.8953 11.6289 24.6845 11.0342 23.3368 11.0342C20.8489 11.0342 18.8249 13.0582 18.8249 15.5459V18.0935C18.8249 19.6983 19.6679 21.1092 20.9337 21.9091V22.8137L18.6533 23.3584C16.5023 23.8722 15 25.7756 15 27.9869V32.5821C15 32.9596 15.3061 33.2657 15.6836 33.2657H21.1498V35.3165C21.1498 35.694 21.4559 36.0001 21.8334 36.0001H29.3327C29.7102 36.0001 30.0163 35.694 30.0163 35.3165C30.0163 34.9389 29.7102 34.6329 29.3327 34.6329H26.2809V31.6242C26.2809 31.2467 25.9748 30.9407 25.5973 30.9407C25.2199 30.9407 24.9137 31.2467 24.9137 31.6242V34.6329H22.5169V31.5486C22.5169 29.2303 24.0915 27.2339 26.3461 26.6936L29.7082 25.8879L31.8715 30.8095C31.9806 31.0578 32.2261 31.2181 32.4972 31.2181H32.4973C32.7684 31.2181 33.0139 31.0578 33.123 30.8096L35.2841 25.8952L38.6365 26.696C40.8931 27.235 42.4691 29.2319 42.4691 31.5519V32.3147C42.4341 32.3968 42.4147 32.4871 42.4147 32.582C42.4147 32.6769 42.4341 32.7673 42.4691 32.8494V34.6329H40.0863V31.6242C40.0863 31.2467 39.7801 30.9407 39.4027 30.9407C39.0252 30.9407 38.7191 31.2467 38.7191 31.6242V34.6329H35.3712C34.9937 34.6329 34.6876 34.9389 34.6876 35.3165C34.6876 35.694 34.9937 36.0001 35.3712 36.0001H43.1526C43.5301 36.0001 43.8362 35.694 43.8362 35.3165V33.2657H49.3164C49.6939 33.2657 50 32.9596 50 32.5821V27.9869C50 25.7756 48.4977 23.8722 46.3469 23.3584ZM41.6634 12.4014C43.3973 12.4014 44.808 13.812 44.808 15.5459V15.7152V15.7839H42.8528C41.3758 15.7839 39.9244 15.3961 38.6454 14.661C39.0286 13.3566 40.2365 12.4014 41.6634 12.4014ZM38.5187 17.9819C38.5211 17.9121 38.5228 16.1439 38.5228 16.1439C39.8667 16.8048 41.3482 17.1511 42.8528 17.1511H44.8081V18.0935C44.808 19.8274 43.3973 21.238 41.6634 21.238C39.9294 21.238 38.5187 19.8273 38.5187 18.0935V17.9819ZM27.8584 14.2234C27.8584 11.6602 29.9438 9.57493 32.507 9.57493C35.0702 9.57493 37.1556 11.6602 37.1556 14.2234V14.3125L34.6185 12.8219C34.3306 12.6527 33.9627 12.7164 33.7482 12.9723C32.7625 14.1486 31.3168 14.8233 29.782 14.8233H27.8584V14.2234ZM20.192 15.7152V15.5459C20.192 13.812 21.6027 12.4014 23.3366 12.4014C24.7635 12.4014 25.9714 13.3566 26.3546 14.6611C25.0755 15.3961 23.6242 15.7839 22.1472 15.7839H20.192V15.7152ZM20.192 18.0935V17.1511H22.1472C23.6533 17.1511 25.1364 16.8041 26.4813 16.1419V18.0935C26.4813 19.8274 25.0706 21.238 23.3366 21.238C21.6027 21.238 20.192 19.8273 20.192 18.0935ZM21.1498 31.5486V31.8985H19.1016V28.8614C19.1016 28.4838 18.7954 28.1778 18.418 28.1778C18.0405 28.1778 17.7344 28.4838 17.7344 28.8614V31.8985H16.3672V27.9869C16.3672 26.4109 17.4378 25.0544 18.9708 24.6882L21.1376 24.1705L22.5519 27.5581C21.6674 28.6569 21.1498 30.0497 21.1498 31.5486ZM23.3368 25.8893L22.2986 23.4025C22.2998 23.3861 22.3007 23.3698 22.3007 23.3532V22.4838C22.6336 22.5623 22.9801 22.6052 23.3366 22.6052C23.6916 22.6052 24.0365 22.5627 24.368 22.4849V23.31C24.3673 23.3228 24.3669 23.3357 24.3669 23.3485C24.3669 23.3701 24.369 23.3915 24.371 23.4128L23.3368 25.8893ZM26.0275 25.3641C25.6239 25.4608 25.2381 25.5954 24.8718 25.7614L25.5377 24.1671L27.7049 24.6865C27.873 24.7267 28.0367 24.78 28.1953 24.8446L26.0275 25.3641ZM29.4206 23.9393C28.9915 23.6731 28.5206 23.476 28.0235 23.3569L25.7352 22.8086V21.9121C26.3043 21.5534 26.7877 21.0713 27.148 20.5034C27.6634 21.5103 28.4544 22.3534 29.4206 22.9334V23.9393ZM34.2044 24.9541L32.4974 28.8359L30.7878 24.9465V23.5366C31.3328 23.6995 31.9098 23.7873 32.507 23.7873C33.0962 23.7873 33.6659 23.7017 34.2044 23.5431V24.9541ZM32.507 22.4202C29.9437 22.4201 27.8584 20.3348 27.8584 17.7717V16.1905H29.7819C31.5267 16.1905 33.1804 15.5009 34.4021 14.2805L37.1516 15.8958V17.9321C37.0665 20.4212 35.0165 22.4202 32.507 22.4202ZM35.5716 22.9462H35.5717C36.5439 22.3682 37.3404 21.5245 37.8597 20.5154C38.2193 21.0781 38.6998 21.5559 39.2648 21.9121V22.8086L36.9765 23.3569C36.4764 23.4768 36.0029 23.6756 35.5716 23.9443V22.9462ZM38.9541 25.3664L36.7922 24.8498C36.9546 24.7828 37.1226 24.7278 37.2951 24.6865L39.4571 24.1684L40.1256 25.7698C39.7546 25.6008 39.3636 25.4642 38.9541 25.3664ZM40.6275 23.423C40.6303 23.3982 40.6322 23.3733 40.6322 23.3482C40.6322 23.3419 40.6322 23.3355 40.632 23.3291V22.4849C40.9635 22.5627 41.3084 22.6052 41.6634 22.6052C42.0199 22.6052 42.3664 22.5623 42.6993 22.4838V23.3532C42.6993 23.3656 42.7002 23.3778 42.7009 23.3902L41.6571 25.8893L40.6275 23.423ZM48.6328 31.8985H47.2656V28.8614C47.2656 28.4838 46.9595 28.1778 46.582 28.1778C46.2046 28.1778 45.8984 28.4838 45.8984 28.8614V31.8985H43.8362V31.5519C43.8362 30.0549 43.3204 28.6641 42.4384 27.5662L43.8571 24.1693L46.0292 24.6882C47.5622 25.0544 48.6328 26.4109 48.6328 27.9869V31.8985Z" fill="white"/>
<path d="M46.3469 23.3584L44.0665 22.8137V21.9091C45.3323 21.1091 46.1753 19.6983 46.1753 18.0935V15.5459C46.1753 13.0581 44.1513 11.0342 41.6634 11.0342C40.3214 11.0342 39.1151 11.6239 38.2879 12.5569C37.5634 10.0479 35.2462 8.20767 32.5071 8.20767H32.507C29.7635 8.20767 27.4432 10.0537 26.7227 12.5689C25.8953 11.6289 24.6845 11.0342 23.3368 11.0342C20.8489 11.0342 18.8249 13.0582 18.8249 15.5459V18.0935C18.8249 19.6983 19.6679 21.1092 20.9337 21.9091V22.8137L18.6533 23.3584C16.5023 23.8722 15 25.7756 15 27.9869V32.5821C15 32.9596 15.3061 33.2657 15.6836 33.2657H21.1498V35.3165C21.1498 35.694 21.4559 36.0001 21.8334 36.0001H29.3327C29.7102 36.0001 30.0163 35.694 30.0163 35.3165C30.0163 34.9389 29.7102 34.6329 29.3327 34.6329H26.2809V31.6242C26.2809 31.2467 25.9748 30.9407 25.5973 30.9407C25.2199 30.9407 24.9137 31.2467 24.9137 31.6242V34.6329H22.5169V31.5486C22.5169 29.2303 24.0915 27.2339 26.3461 26.6936L29.7082 25.8879L31.8715 30.8095C31.9806 31.0578 32.2261 31.2181 32.4972 31.2181H32.4973C32.7684 31.2181 33.0139 31.0578 33.123 30.8096L35.2841 25.8952L38.6365 26.696C40.8931 27.235 42.4691 29.2319 42.4691 31.5519V32.3147C42.4341 32.3968 42.4147 32.4871 42.4147 32.582C42.4147 32.6769 42.4341 32.7673 42.4691 32.8494V34.6329H40.0863V31.6242C40.0863 31.2467 39.7801 30.9407 39.4027 30.9407C39.0252 30.9407 38.7191 31.2467 38.7191 31.6242V34.6329H35.3712C34.9937 34.6329 34.6876 34.9389 34.6876 35.3165C34.6876 35.694 34.9937 36.0001 35.3712 36.0001H43.1526C43.5301 36.0001 43.8362 35.694 43.8362 35.3165V33.2657H49.3164C49.6939 33.2657 50 32.9596 50 32.5821V27.9869C50 25.7756 48.4977 23.8722 46.3469 23.3584ZM41.6634 12.4014C43.3973 12.4014 44.808 13.812 44.808 15.5459V15.7152V15.7839H42.8528C41.3758 15.7839 39.9244 15.3961 38.6454 14.661C39.0286 13.3566 40.2365 12.4014 41.6634 12.4014ZM38.5187 17.9819C38.5211 17.9121 38.5228 16.1439 38.5228 16.1439C39.8667 16.8048 41.3482 17.1511 42.8528 17.1511H44.8081V18.0935C44.808 19.8274 43.3973 21.238 41.6634 21.238C39.9294 21.238 38.5187 19.8273 38.5187 18.0935V17.9819ZM27.8584 14.2234C27.8584 11.6602 29.9438 9.57493 32.507 9.57493C35.0702 9.57493 37.1556 11.6602 37.1556 14.2234V14.3125L34.6185 12.8219C34.3306 12.6527 33.9627 12.7164 33.7482 12.9723C32.7625 14.1486 31.3168 14.8233 29.782 14.8233H27.8584V14.2234ZM20.192 15.7152V15.5459C20.192 13.812 21.6027 12.4014 23.3366 12.4014C24.7635 12.4014 25.9714 13.3566 26.3546 14.6611C25.0755 15.3961 23.6242 15.7839 22.1472 15.7839H20.192V15.7152ZM20.192 18.0935V17.1511H22.1472C23.6533 17.1511 25.1364 16.8041 26.4813 16.1419V18.0935C26.4813 19.8274 25.0706 21.238 23.3366 21.238C21.6027 21.238 20.192 19.8273 20.192 18.0935ZM21.1498 31.5486V31.8985H19.1016V28.8614C19.1016 28.4838 18.7954 28.1778 18.418 28.1778C18.0405 28.1778 17.7344 28.4838 17.7344 28.8614V31.8985H16.3672V27.9869C16.3672 26.4109 17.4378 25.0544 18.9708 24.6882L21.1376 24.1705L22.5519 27.5581C21.6674 28.6569 21.1498 30.0497 21.1498 31.5486ZM23.3368 25.8893L22.2986 23.4025C22.2998 23.3861 22.3007 23.3698 22.3007 23.3532V22.4838C22.6336 22.5623 22.9801 22.6052 23.3366 22.6052C23.6916 22.6052 24.0365 22.5627 24.368 22.4849V23.31C24.3673 23.3228 24.3669 23.3357 24.3669 23.3485C24.3669 23.3701 24.369 23.3915 24.371 23.4128L23.3368 25.8893ZM26.0275 25.3641C25.6239 25.4608 25.2381 25.5954 24.8718 25.7614L25.5377 24.1671L27.7049 24.6865C27.873 24.7267 28.0367 24.78 28.1953 24.8446L26.0275 25.3641ZM29.4206 23.9393C28.9915 23.6731 28.5206 23.476 28.0235 23.3569L25.7352 22.8086V21.9121C26.3043 21.5534 26.7877 21.0713 27.148 20.5034C27.6634 21.5103 28.4544 22.3534 29.4206 22.9334V23.9393ZM34.2044 24.9541L32.4974 28.8359L30.7878 24.9465V23.5366C31.3328 23.6995 31.9098 23.7873 32.507 23.7873C33.0962 23.7873 33.6659 23.7017 34.2044 23.5431V24.9541ZM32.507 22.4202C29.9437 22.4201 27.8584 20.3348 27.8584 17.7717V16.1905H29.7819C31.5267 16.1905 33.1804 15.5009 34.4021 14.2805L37.1516 15.8958V17.9321C37.0665 20.4212 35.0165 22.4202 32.507 22.4202ZM35.5716 22.9462H35.5717C36.5439 22.3682 37.3404 21.5245 37.8597 20.5154C38.2193 21.0781 38.6998 21.5559 39.2648 21.9121V22.8086L36.9765 23.3569C36.4764 23.4768 36.0029 23.6756 35.5716 23.9443V22.9462ZM38.9541 25.3664L36.7922 24.8498C36.9546 24.7828 37.1226 24.7278 37.2951 24.6865L39.4571 24.1684L40.1256 25.7698C39.7546 25.6008 39.3636 25.4642 38.9541 25.3664ZM40.6275 23.423C40.6303 23.3982 40.6322 23.3733 40.6322 23.3482C40.6322 23.3419 40.6322 23.3355 40.632 23.3291V22.4849C40.9635 22.5627 41.3084 22.6052 41.6634 22.6052C42.0199 22.6052 42.3664 22.5623 42.6993 22.4838V23.3532C42.6993 23.3656 42.7002 23.3778 42.7009 23.3902L41.6571 25.8893L40.6275 23.423ZM48.6328 31.8985H47.2656V28.8614C47.2656 28.4838 46.9595 28.1778 46.582 28.1778C46.2046 28.1778 45.8984 28.4838 45.8984 28.8614V31.8985H43.8362V31.5519C43.8362 30.0549 43.3204 28.6641 42.4384 27.5662L43.8571 24.1693L46.0292 24.6882C47.5622 25.0544 48.6328 26.4109 48.6328 27.9869V31.8985Z" stroke="#4A4D50" stroke-width="0.4" mask="url(#path-2-outside-1)"/>
<path d="M31.1524 2.79282H30.6836C30.2509 2.79282 29.9 3.14363 29.9 3.57642C29.9 4.0092 30.2509 4.36001 30.6836 4.36001H31.1524C31.5851 4.36001 31.936 4.0092 31.936 3.57642C31.936 3.14363 31.5851 2.79282 31.1524 2.79282Z" fill="white" stroke="#4A4D50" stroke-width="0.2"/>
<path d="M34.4692 2.79282H34.0004C33.5677 2.79282 33.2168 3.14363 33.2168 3.57642C33.2168 4.00919 33.5676 4.36001 34.0004 4.36001H34.4692C34.9019 4.36001 35.2528 4.0092 35.2528 3.57642C35.2528 3.14363 34.9019 2.79282 34.4692 2.79282Z" fill="white" stroke="#4A4D50" stroke-width="0.2"/>
<path d="M32.5764 4.21689C32.1437 4.21689 31.7928 4.5677 31.7928 5.00049V5.46937C31.7928 5.90214 32.1436 6.25296 32.5764 6.25296C33.0091 6.25296 33.36 5.90215 33.36 5.46937V5.00049C33.36 4.5677 33.0091 4.21689 32.5764 4.21689Z" fill="white" stroke="#4A4D50" stroke-width="0.2"/>
<path d="M32.5764 0.9C32.1437 0.9 31.7928 1.25081 31.7928 1.68359V2.15247C31.7928 2.58525 32.1436 2.93606 32.5764 2.93606C33.0091 2.93606 33.36 2.58525 33.36 2.15247V1.68359C33.36 1.25081 33.0091 0.9 32.5764 0.9Z" fill="white" stroke="#4A4D50" stroke-width="0.2"/>
<path d="M1.53277 47.976H3.42277V52.68H3.53477L7.11877 47.976H9.44277V48.088L5.56477 53.03L9.69477 57.888V58H7.30077L3.53477 53.534H3.42277V58H1.53277V47.976ZM13.8296 58.224C13.0922 58.224 12.4342 58.0607 11.8556 57.734C11.2769 57.398 10.8242 56.9453 10.4976 56.376C10.1802 55.7973 10.0216 55.1487 10.0216 54.43C10.0216 53.7207 10.1802 53.0767 10.4976 52.498C10.8242 51.9193 11.2769 51.4667 11.8556 51.14C12.4342 50.804 13.0922 50.636 13.8296 50.636C14.5576 50.636 15.2109 50.804 15.7896 51.14C16.3682 51.4667 16.8162 51.9193 17.1336 52.498C17.4602 53.0767 17.6236 53.7207 17.6236 54.43C17.6236 55.1487 17.4602 55.7973 17.1336 56.376C16.8162 56.9453 16.3682 57.398 15.7896 57.734C15.2109 58.0607 14.5576 58.224 13.8296 58.224ZM13.8296 56.53C14.1842 56.53 14.5109 56.446 14.8096 56.278C15.1082 56.11 15.3462 55.8673 15.5236 55.55C15.7009 55.2327 15.7896 54.8593 15.7896 54.43C15.7896 54.01 15.7009 53.6413 15.5236 53.324C15.3462 53.0067 15.1082 52.764 14.8096 52.596C14.5109 52.428 14.1842 52.344 13.8296 52.344C13.4749 52.344 13.1482 52.428 12.8496 52.596C12.5509 52.764 12.3082 53.0067 12.1216 53.324C11.9442 53.6413 11.8556 54.01 11.8556 54.43C11.8556 54.85 11.9442 55.2233 12.1216 55.55C12.3082 55.8673 12.5509 56.11 12.8496 56.278C13.1482 56.446 13.4749 56.53 13.8296 56.53ZM18.8761 50.86H21.0461L23.0341 54.738H23.1321L25.0921 50.86H27.2621V58H25.5121V55.004L25.6241 53.66H25.5121L23.7201 57.104H22.4461L20.6401 53.66H20.5281L20.6401 55.004V58H18.8761V50.86ZM31.164 58.224C30.408 58.224 29.7873 58.0047 29.302 57.566C28.8167 57.118 28.574 56.5347 28.574 55.816C28.574 55.34 28.7 54.92 28.952 54.556C29.204 54.192 29.5493 53.912 29.988 53.716C30.4267 53.52 30.912 53.422 31.444 53.422C32.1813 53.422 32.8113 53.5293 33.334 53.744V53.436C33.334 53.044 33.1847 52.7267 32.886 52.484C32.5967 52.2413 32.2047 52.12 31.71 52.12C31.374 52.12 31.0473 52.1993 30.73 52.358C30.422 52.5073 30.1653 52.708 29.96 52.96L28.784 52.036C29.1293 51.588 29.5633 51.2427 30.086 51C30.6087 50.7573 31.178 50.636 31.794 50.636C32.886 50.636 33.7167 50.888 34.286 51.392C34.8553 51.896 35.14 52.6333 35.14 53.604V58H33.334V57.272H33.222C33.0073 57.552 32.7227 57.7807 32.368 57.958C32.0227 58.1353 31.6213 58.224 31.164 58.224ZM31.598 56.796C32.13 56.796 32.55 56.628 32.858 56.292C33.1753 55.9467 33.334 55.5453 33.334 55.088C32.858 54.864 32.3587 54.752 31.836 54.752C30.884 54.752 30.408 55.1067 30.408 55.816C30.408 56.1053 30.5107 56.3433 30.716 56.53C30.9213 56.7073 31.2153 56.796 31.598 56.796ZM36.8276 50.86H38.6616V53.52H41.7696V50.86H43.5896V58H41.7696V55.228H38.6616V58H36.8276V50.86ZM44.9659 56.39H45.7919C45.9786 56.082 46.1326 55.6527 46.2539 55.102C46.3752 54.542 46.4359 53.9773 46.4359 53.408V50.86H52.4979V56.39H53.5479V60.128H51.8959V58H46.6039V60.128H44.9659V56.39ZM50.7339 56.39V52.47H48.1719V53.562C48.1719 54.066 48.1252 54.5653 48.0319 55.06C47.9479 55.5453 47.8266 55.9887 47.6679 56.39H50.7339ZM54.8882 50.86H56.6242V53.24H58.4302C59.2235 53.24 59.8629 53.4547 60.3482 53.884C60.8335 54.304 61.0762 54.8827 61.0762 55.62C61.0762 56.3573 60.8335 56.9407 60.3482 57.37C59.8629 57.79 59.2235 58 58.4302 58H54.8882V50.86ZM61.9722 50.86H63.7082V58H61.9722V50.86ZM58.3602 56.558C58.6775 56.558 58.9295 56.4787 59.1162 56.32C59.3029 56.152 59.3962 55.9187 59.3962 55.62C59.3962 55.3213 59.3029 55.0927 59.1162 54.934C58.9295 54.766 58.6775 54.682 58.3602 54.682H56.6242V56.558H58.3602Z" fill="white"/>
</g>
</svg>
